<?xml version="1.0" encoding="utf-8"?>
<!-- Generator: Adobe Illustrator 16.0.0, SVG Export Plug-In . SVG Version: 6.00 Build 0)  -->
<!DOCTYPE svg PUBLIC "-//W3C//DTD SVG 1.1//EN" "http://www.w3.org/Graphics/SVG/1.1/DTD/svg11.dtd">
<svg version="1.1" id="Layer_1" xmlns="http://www.w3.org/2000/svg" xmlns:xlink="http://www.w3.org/1999/xlink" x="0px" y="0px"
	 width="268.807px" height="309px" viewBox="0 0 268.807 309" enable-background="new 0 0 268.807 309" xml:space="preserve">
<path fill="#FFFFFF" d="M266.796,79.481c-0.003-0.419-0.1-0.843-0.324-1.232s-0.543-0.685-0.905-0.897l-0.01-0.017l-129.903-75h-2.5
	l-129.903,75l-0.011,0.018c-0.361,0.211-0.68,0.507-0.904,0.896c-0.225,0.389-0.321,0.812-0.324,1.231L2,79.5v150l1.25,2.165
	l129.903,75h0.021c0.364,0.207,0.779,0.335,1.229,0.335s0.864-0.128,1.229-0.335h0.021l129.903-74.999l1.25-2.165v-150
	L266.796,79.481z M134.403,7.387L259.306,79.5l-124.902,72.113L9.5,79.5L134.403,7.387z M7,83.83l124.903,72.114V300.17L7,228.057
	V83.83z M261.807,228.058L136.903,300.17V155.943L261.807,83.83V228.058z"/>
</svg>
